<svg id="Layer_1" data-name="Layer 1" xmlns="http://www.w3.org/2000/svg" viewBox="0 0 169.67 169.67"><defs><style>.cls-1,.cls-2{fill:none;stroke:#000;stroke-miterlimit:10;}.cls-1{stroke-width:5px;}.cls-2{stroke-width:3px;}</style></defs><title>logo</title><path class="cls-1" d="M145.49,83.25c0,16.37-11.61,23.18-18.25,25.74-8.87-20.9-32.33-35.84-59.88-35.84C32.2,73.15,3.69,97.48,3.69,127.5c0,15,9.81,27,18.65,38.44.36.46,27.44.87,45,.87,17.84,0,45.14-.31,45.14-.31A58.31,58.31,0,0,0,125.37,150c15.38-3,23.22-20.66,25.74-27.14,9.8-25.08,2-32.06,14.7-37.92V60.19S145.49,66.75,145.49,83.25Z"/><path class="cls-1" d="M16.4,95S2.5,10.93,67.5,12s50.11,83,50.11,83"/><ellipse cx="80.16" cy="39.08" rx="4.52" ry="5"/><ellipse cx="51.16" cy="39.08" rx="4.52" ry="5"/><polygon points="26.92 28.25 26.92 0 46.57 16.77 26.92 28.25"/><polygon points="105.64 28.25 105.64 0 86 16.77 105.64 28.25"/><polygon points="53.16 52 77.59 52 65.78 62.08 53.16 52"/><path class="cls-1" d="M47,57.6s0,7.28,8.53,7.28,8.53-7.28,8.53-7.28"/><path class="cls-1" d="M68,57.6s0,7.28,8.53,7.28,8.53-7.28,8.53-7.28"/><polygon class="cls-2" points="33.88 31 40.31 46.39 62.21 46.39 62.21 31 33.88 31"/><polygon class="cls-2" points="97.96 31 91.52 46.39 69.62 46.39 69.62 31 97.96 31"/><line class="cls-2" x1="27.5" y1="30.6" x2="106.5" y2="30.6"/></svg>