<svg id="Layer_1" data-name="Layer 1" xmlns="http://www.w3.org/2000/svg" viewBox="0 0 169.67 169.67"><defs><style>.cls-1,.cls-3{fill:none;stroke:#fff;stroke-miterlimit:10;}.cls-1{stroke-width:5px;}.cls-2{fill:#fff;}.cls-3{stroke-width:3px;}</style></defs><title>logo</title><path class="cls-1" d="M144.49,83.25c0,16.37-11.61,23.18-18.25,25.74-8.87-20.9-32.33-35.84-59.88-35.84C31.2,73.15,2.69,97.48,2.69,127.5c0,15,9.81,27,18.65,38.44.36.46,27.44.87,45,.87,17.84,0,45.14-.31,45.14-.31A58.31,58.31,0,0,0,124.37,150c15.38-3,23.22-20.66,25.74-27.14,9.8-25.08,2-32.06,14.7-37.92V60.19S144.49,66.75,144.49,83.25Z"/><path class="cls-1" d="M15.4,95S1.5,10.93,66.5,12s50.11,83,50.11,83"/><circle class="cls-2" cx="79.16" cy="39.08" r="4.5"/><circle class="cls-2" cx="50.16" cy="39.08" r="4.5"/><polygon class="cls-2" points="25.92 28.25 25.92 0 45.57 16.77 25.92 28.25"/><polygon class="cls-2" points="104.64 28.25 104.64 0 85 16.77 104.64 28.25"/><polygon class="cls-2" points="56.04 54 73.1 54 64.85 61.04 56.04 54"/><path class="cls-3" d="M51.74,57.91s0,5.09,6,5.09,6-5.09,6-5.09"/><path class="cls-3" d="M66.41,57.91s0,5.09,6,5.09,5.95-5.09,5.95-5.09"/><polygon class="cls-3" points="32.88 31 39.31 46.39 61.21 46.39 61.21 31 32.88 31"/><polygon class="cls-3" points="96.96 31 90.52 46.39 68.62 46.39 68.62 31 96.96 31"/><line class="cls-3" x1="26.5" y1="30.6" x2="105.5" y2="30.6"/></svg>